<svg width="32" height="32" viewBox="0 0 32 32" fill="none" xmlns="http://www.w3.org/2000/svg">
<path d="M13.3958 10.9751C14.0788 8.926 16.7821 8.48731 18.0781 10.2153C18.8372 11.2274 18.7842 12.6328 17.9511 13.585L16.7255 14.9857C15.6131 16.257 15 17.8888 15 19.5779V20.0001C15 20.5524 15.4477 21.0001 16 21.0001C16.5523 21.0001 17 20.5524 17 20.0001V19.5779C17 18.3732 17.4373 17.2094 18.2306 16.3027L19.4562 14.902C20.9117 13.2386 21.0042 10.7835 19.6781 9.01525C17.4141 5.99665 12.6916 6.76301 11.4984 10.3426L11.0513 11.6839C10.8767 12.2078 11.1598 12.7741 11.6838 12.9488C12.2077 13.1234 12.7741 12.8403 12.9487 12.3163L13.3958 10.9751Z" fill="#A5A4A5"/>
<path fill-rule="evenodd" clip-rule="evenodd" d="M16 1.66675C8.08394 1.66675 1.66669 8.084 1.66669 16.0001C1.66669 23.9162 8.08394 30.3334 16 30.3334C23.9161 30.3334 30.3334 23.9162 30.3334 16.0001C30.3334 8.084 23.9161 1.66675 16 1.66675ZM3.66669 16.0001C3.66669 9.18857 9.18851 3.66675 16 3.66675C22.8115 3.66675 28.3334 9.18857 28.3334 16.0001C28.3334 22.8116 22.8115 28.3334 16 28.3334C9.18851 28.3334 3.66669 22.8116 3.66669 16.0001Z" fill="#A5A4A5"/>
<path d="M17.3334 24.0001C17.3334 24.7365 16.7364 25.3334 16 25.3334C15.2636 25.3334 14.6667 24.7365 14.6667 24.0001C14.6667 23.2637 15.2636 22.6667 16 22.6667C16.7364 22.6667 17.3334 23.2637 17.3334 24.0001Z" fill="#A5A4A5"/>
</svg>
