<svg width="28" height="28" viewBox="0 0 28 28" fill="none" xmlns="http://www.w3.org/2000/svg">
<path d="M12.8714 9.95625C12.8699 9.61544 12.5924 9.33546 12.2515 9.33088C11.9107 9.32631 11.6356 9.59888 11.6372 9.93968L11.6465 12.0188C11.65 12.8018 11.6529 13.4418 11.7134 13.9541C11.7763 14.4869 11.9085 14.9592 12.2259 15.3675C12.3651 15.5465 12.5261 15.7075 12.7051 15.8467C13.1134 16.1641 13.5858 16.2964 14.1185 16.3593C14.6308 16.4197 15.2708 16.4226 16.0539 16.4261L18.1329 16.4355C18.4738 16.437 18.7463 16.1619 18.7417 15.8211C18.7372 15.4803 18.4572 15.2027 18.1164 15.2012L16.0741 15.192C15.2453 15.1883 14.6758 15.1848 14.2415 15.1335C13.8197 15.0837 13.6044 14.9961 13.4518 14.8774C13.3559 14.8029 13.2697 14.7167 13.1952 14.6209C13.0766 14.4682 12.9889 14.2529 12.9391 13.8311C12.8879 13.3969 12.8844 12.8274 12.8806 11.9985L12.8714 9.95625Z" fill="#A5A4A5" stroke="#A5A4A5" stroke-linecap="round"/>
</svg>
