<svg width="32" height="32" viewBox="0 0 32 32" fill="none" xmlns="http://www.w3.org/2000/svg">
<path d="M17 12.0001C17 11.4478 16.5523 11.0001 16 11.0001C15.4477 11.0001 15 11.4478 15 12.0001V15.0001H12C11.4477 15.0001 11 15.4478 11 16.0001C11 16.5524 11.4477 17.0001 12 17.0001H15V20.0001C15 20.5524 15.4477 21.0001 16 21.0001C16.5523 21.0001 17 20.5524 17 20.0001V17.0001H20C20.5523 17.0001 21 16.5524 21 16.0001C21 15.4478 20.5523 15.0001 20 15.0001H17V12.0001Z" fill="#A5A4A5"/>
<path fill-rule="evenodd" clip-rule="evenodd" d="M16 1.66675C8.08394 1.66675 1.66669 8.084 1.66669 16.0001C1.66669 23.9162 8.08394 30.3334 16 30.3334C23.9161 30.3334 30.3334 23.9162 30.3334 16.0001C30.3334 8.084 23.9161 1.66675 16 1.66675ZM3.66669 16.0001C3.66669 9.18857 9.18851 3.66675 16 3.66675C22.8115 3.66675 28.3334 9.18857 28.3334 16.0001C28.3334 22.8116 22.8115 28.3334 16 28.3334C9.18851 28.3334 3.66669 22.8116 3.66669 16.0001Z" fill="#A5A4A5"/>
</svg>
