<svg width="32" height="32" viewBox="0 0 32 32" fill="none" xmlns="http://www.w3.org/2000/svg">
<path fill-rule="evenodd" clip-rule="evenodd" d="M15.9999 10.9999C13.2385 10.9999 10.9999 13.2385 10.9999 15.9999C10.9999 18.7614 13.2385 20.9999 15.9999 20.9999C18.7613 20.9999 20.9999 18.7614 20.9999 15.9999C20.9999 13.2385 18.7613 10.9999 15.9999 10.9999ZM12.9999 15.9999C12.9999 14.3431 14.343 12.9999 15.9999 12.9999C17.6567 12.9999 18.9999 14.3431 18.9999 15.9999C18.9999 17.6568 17.6567 18.9999 15.9999 18.9999C14.343 18.9999 12.9999 17.6568 12.9999 15.9999Z" fill="#A5A4A5"/>
<path fill-rule="evenodd" clip-rule="evenodd" d="M20.5528 4.30965C19.2456 -0.27086 12.7542 -0.270859 11.4469 4.30965C11.0419 5.72886 9.58385 6.57067 8.15227 6.21182C3.53183 5.05365 0.286092 10.6754 3.59932 14.0978C4.62588 15.1581 4.62588 16.8418 3.59932 17.9021C0.286091 21.3245 3.53183 26.9462 8.15227 25.7881C9.58385 25.4292 11.0419 26.271 11.4469 27.6902C12.7542 32.2707 19.2456 32.2707 20.5528 27.6902C20.9579 26.271 22.4159 25.4292 23.8475 25.7881C28.4679 26.9462 31.7137 21.3245 28.4005 17.9021C27.3739 16.8418 27.3739 15.1581 28.4005 14.0978C31.7137 10.6754 28.4679 5.05365 23.8475 6.21182C22.4159 6.57067 20.9579 5.72886 20.5528 4.30965ZM13.3701 4.85851C14.1252 2.21285 17.8746 2.21285 18.6296 4.85851C19.3309 7.31563 21.8552 8.77308 24.3338 8.15181C27.0025 7.48286 28.8772 10.7299 26.9635 12.7066C25.1862 14.5425 25.1862 17.4574 26.9635 19.2932C28.8772 21.2699 27.0025 24.517 24.3338 23.8481C21.8552 23.2268 19.3309 24.6843 18.6296 27.1414C17.8746 29.787 14.1252 29.787 13.3701 27.1414C12.6689 24.6843 10.1445 23.2268 7.66599 23.8481C4.99727 24.517 3.12257 21.2699 5.03625 19.2932C6.81356 17.4574 6.81357 14.5425 5.03625 12.7066C3.12257 10.7299 4.99727 7.48286 7.66599 8.15181C10.1445 8.77308 12.6689 7.31563 13.3701 4.85851Z" fill="#A5A4A5"/>
</svg>
