<svg width="28" height="28" viewBox="0 0 28 28" fill="none" xmlns="http://www.w3.org/2000/svg">
<path d="M9.86708 11.5648C9.52627 11.5632 9.2537 11.8383 9.25827 12.1791C9.26285 12.52 9.54283 12.7975 9.88364 12.799L11.9259 12.8082C12.7548 12.8119 13.3243 12.8154 13.7585 12.8667C14.1803 12.9165 14.3956 13.0042 14.5482 13.1228C14.6441 13.1973 14.7303 13.2835 14.8048 13.3794C14.9235 13.532 15.0111 13.7473 15.0609 14.1691C15.1122 14.6033 15.1157 15.1728 15.1194 16.0017L15.1286 18.044C15.1301 18.3848 15.4077 18.6648 15.7485 18.6693C16.0893 18.6739 16.3644 18.4013 16.3629 18.0605L16.3535 15.9815C16.35 15.1984 16.3471 14.5584 16.2866 14.0461C16.2238 13.5134 16.0915 13.041 15.7741 12.6327C15.6349 12.4537 15.4739 12.2927 15.2949 12.1535C14.8866 11.8361 14.4143 11.7039 13.8815 11.641C13.3692 11.5805 12.7292 11.5776 11.9461 11.5741L9.86708 11.5648Z" fill="#A5A4A5" stroke="#A5A4A5" stroke-linecap="round"/>
</svg>
