<svg width="32" height="32" viewBox="0 0 32 32" fill="none" xmlns="http://www.w3.org/2000/svg">
<path d="M13.3958 10.975C14.0788 8.92594 16.7821 8.48725 18.0781 10.2152C18.8372 11.2274 18.7842 12.6328 17.9511 13.585L16.7255 14.9857C15.6131 16.2569 15 17.8887 15 19.5779V20C15 20.5523 15.4477 21 16 21C16.5523 21 17 20.5523 17 20V19.5779C17 18.3731 17.4373 17.2093 18.2306 16.3027L19.4562 14.902C20.9117 13.2386 21.0042 10.7834 19.6781 9.01519C17.4141 5.99659 12.6916 6.76295 11.4984 10.3426L11.0513 11.6838C10.8767 12.2077 11.1598 12.7741 11.6838 12.9487C12.2077 13.1234 12.7741 12.8402 12.9487 12.3162L13.3958 10.975Z" fill="#A5A4A5"/>
<path fill-rule="evenodd" clip-rule="evenodd" d="M16 1.66669C8.08394 1.66669 1.66669 8.08394 1.66669 16C1.66669 23.9161 8.08394 30.3334 16 30.3334C23.9161 30.3334 30.3334 23.9161 30.3334 16C30.3334 8.08394 23.9161 1.66669 16 1.66669ZM3.66669 16C3.66669 9.18851 9.18851 3.66669 16 3.66669C22.8115 3.66669 28.3334 9.18851 28.3334 16C28.3334 22.8115 22.8115 28.3334 16 28.3334C9.18851 28.3334 3.66669 22.8115 3.66669 16Z" fill="#A5A4A5"/>
<path d="M17.3334 24C17.3334 24.7364 16.7364 25.3334 16 25.3334C15.2636 25.3334 14.6667 24.7364 14.6667 24C14.6667 23.2636 15.2636 22.6667 16 22.6667C16.7364 22.6667 17.3334 23.2636 17.3334 24Z" fill="#A5A4A5"/>
</svg>
