<svg width="32" height="32" viewBox="0 0 32 32" fill="none" xmlns="http://www.w3.org/2000/svg">
<path fill-rule="evenodd" clip-rule="evenodd" d="M15.9999 11C13.2385 11 10.9999 13.2386 10.9999 16C10.9999 18.7614 13.2385 21 15.9999 21C18.7613 21 20.9999 18.7614 20.9999 16C20.9999 13.2386 18.7613 11 15.9999 11ZM12.9999 16C12.9999 14.3431 14.343 13 15.9999 13C17.6567 13 18.9999 14.3431 18.9999 16C18.9999 17.6569 17.6567 19 15.9999 19C14.343 19 12.9999 17.6569 12.9999 16Z" fill="#A5A4A5"/>
<path fill-rule="evenodd" clip-rule="evenodd" d="M20.5528 4.30971C19.2456 -0.270799 12.7542 -0.270797 11.4469 4.30971C11.0419 5.72892 9.58385 6.57073 8.15227 6.21188C3.53183 5.05371 0.286092 10.6755 3.59932 14.0978C4.62588 15.1582 4.62588 16.8418 3.59932 17.9022C0.286091 21.3245 3.53183 26.9463 8.15227 25.7881C9.58385 25.4293 11.0419 26.2711 11.4469 27.6903C12.7542 32.2708 19.2456 32.2708 20.5528 27.6903C20.9579 26.2711 22.4159 25.4293 23.8475 25.7881C28.4679 26.9463 31.7137 21.3245 28.4005 17.9022C27.3739 16.8418 27.3739 15.1582 28.4005 14.0978C31.7137 10.6755 28.4679 5.05371 23.8475 6.21188C22.4159 6.57073 20.9579 5.72892 20.5528 4.30971ZM13.3701 4.85857C14.1252 2.21291 17.8746 2.21292 18.6296 4.85857C19.3309 7.31569 21.8552 8.77314 24.3338 8.15187C27.0025 7.48292 28.8772 10.73 26.9635 12.7067C25.1862 14.5425 25.1862 17.4575 26.9635 19.2933C28.8772 21.27 27.0025 24.5171 24.3338 23.8481C21.8552 23.2269 19.3309 24.6843 18.6296 27.1414C17.8746 29.7871 14.1252 29.7871 13.3701 27.1414C12.6689 24.6843 10.1445 23.2269 7.66599 23.8481C4.99727 24.5171 3.12257 21.27 5.03625 19.2933C6.81356 17.4575 6.81357 14.5425 5.03625 12.7067C3.12257 10.73 4.99727 7.48292 7.66599 8.15187C10.1445 8.77314 12.6689 7.31569 13.3701 4.85857Z" fill="#A5A4A5"/>
</svg>
