<svg width="20" height="20" viewBox="0 0 20 20" fill="none" xmlns="http://www.w3.org/2000/svg">
<g clip-path="url(#clip0_208_1462)">
<path d="M10.625 3.33331C10.625 2.98813 10.3452 2.70831 10 2.70831C9.65482 2.70831 9.375 2.98814 9.375 3.33331L9.375 9.37498H3.33333C2.98816 9.37498 2.70833 9.6548 2.70833 9.99998C2.70833 10.3452 2.98816 10.625 3.33333 10.625H9.375V16.6666C9.375 17.0118 9.65482 17.2916 10 17.2916C10.3452 17.2916 10.625 17.0118 10.625 16.6666V10.625H16.6667C17.0118 10.625 17.2917 10.3452 17.2917 9.99998C17.2917 9.6548 17.0118 9.37498 16.6667 9.37498H10.625L10.625 3.33331Z" fill="white" stroke="white" stroke-width="4" stroke-linecap="round"/>
</g>
<defs>
<clipPath id="clip0_208_1462">
<rect width="20" height="20" fill="white"/>
</clipPath>
</defs>
</svg>
